<?xml version="1.0" encoding="UTF-8"?>
<svg id="Camada_1" xmlns="http://www.w3.org/2000/svg" version="1.1" viewBox="0 0 512 512">
  <!-- Generator: Adobe Illustrator 29.5.0, SVG Export Plug-In . SVG Version: 2.1.0 Build 137)  -->
  <defs>
    <style>
      .st0 {
        fill: #a95fff;
      }
    </style>
  </defs>
  <path class="st0" d="M0,171c1.41.77,2.82,1.55,4.23,2.33q1.18.65,2.38,1.31c3.84,2.2,7.47,4.68,11.12,7.18.82.56,1.64,1.11,2.49,1.69,1.77,1.2,3.54,2.4,5.31,3.61,4.81,3.27,9.63,6.54,14.45,9.8,1,.67,1.99,1.35,3.02,2.04,10.27,6.94,20.63,13.75,30.99,20.55,14.57,9.57,29.07,19.23,43.5,29,16.4,11.1,32.89,22.06,49.45,32.93,8.82,5.78,17.61,11.6,26.33,17.52,1.64,1.11,3.28,2.21,4.91,3.32,3.01,2.04,6.02,4.09,9.02,6.15,19.16,13.03,39.72,19.84,63.07,15.96,16.79-3.49,30.9-13.14,44.79-22.72,4.71-3.25,9.44-6.46,14.17-9.67.97-.66,1.95-1.33,2.95-2.01,10.2-6.94,20.5-13.71,30.81-20.48,14.57-9.56,29.07-19.23,43.5-29,16.32-11.05,32.73-21.95,49.21-32.77,9.25-6.08,18.49-12.18,27.7-18.33q1.37-.92,2.77-1.85c4.37-2.92,8.74-5.85,13.11-8.78,1.54-1.03,3.09-2.07,4.63-3.1q1.06-.71,2.15-1.44,4.82-3.22,5.94-3.22c.11,30.35.2,60.71.26,91.06,0,3.59.01,7.18.02,10.77,0,.71,0,1.43,0,2.16.02,11.55.06,23.09.11,34.64.05,11.86.07,23.72.08,35.58,0,6.66.02,13.31.06,19.97.03,6.27.04,12.54.04,18.81,0,2.3.01,4.59.03,6.89.14,17.76-1.65,30.44-14.16,43.87-9.59,8.85-20.03,13.49-33.16,13.51q-1.11,0-2.24.01c-2.46,0-4.93,0-7.39,0-1.79,0-3.58,0-5.36.01-4.91.01-9.81.01-14.72,0-5.29,0-10.59.01-15.88.02-10.37.02-20.74.02-31.1.02-8.43,0-16.86,0-25.29.01-23.9.02-47.81.03-71.71.03q-1.93,0-3.9,0c-1.29,0-2.58,0-3.91,0-20.9,0-41.81.02-62.71.05-21.47.03-42.94.04-64.41.04-12.05,0-24.1,0-36.15.03-10.26.02-20.52.02-30.78,0-5.23,0-10.47,0-15.7.01-4.8.02-9.59.01-14.39,0-1.73,0-3.46,0-5.19.01-15.44.09-28.32-2.24-40.13-12.95-.76-.85-1.53-1.69-2.31-2.56-.48-.49-.96-.98-1.46-1.48-6.2-6.61-10.67-15.59-10.67-24.76,0-.84,0-1.69,0-2.56,0-.92,0-1.84,0-2.79,0-.98,0-1.97,0-2.98,0-3.3,0-6.61,0-9.91,0-2.37,0-4.73,0-7.1,0-6.43,0-12.86.01-19.29,0-6.04,0-12.07,0-18.11,0-11.96,0-23.91.02-35.87,0-11.61.02-23.23.02-34.84,0-.72,0-1.43,0-2.17,0-3.59,0-7.18,0-10.77.01-29.79.03-59.58.05-89.38Z"/>
  <path class="st0" d="M46.73,63.74c.74,0,1.48,0,2.24-.01,2.46,0,4.93,0,7.39,0,1.79,0,3.58,0,5.36-.01,4.91-.01,9.81-.01,14.72,0,5.29,0,10.59-.01,15.88-.02,10.37-.02,20.74-.02,31.1-.02,8.43,0,16.86,0,25.29-.01,23.9-.02,47.81-.03,71.71-.03q1.93,0,3.9,0c1.29,0,2.58,0,3.91,0,20.9,0,41.81-.02,62.71-.05,21.47-.03,42.94-.04,64.41-.04,12.05,0,24.1,0,36.15-.03,10.26-.02,20.52-.02,30.78,0,5.23,0,10.47,0,15.7-.01,4.8-.02,9.59-.01,14.39,0,1.73,0,3.46,0,5.19-.01,15.44-.09,28.32,2.24,40.13,12.95.76.85,1.53,1.69,2.31,2.56q.72.72,1.46,1.45c9.5,9.96,11.01,22.44,10.82,35.51-.47,12.72-7.24,22.35-16.06,31.04-3.45,3.12-7.2,5.61-11.11,8.11-.85.55-1.7,1.11-2.57,1.68-1.82,1.19-3.65,2.37-5.48,3.56-4.96,3.2-9.91,6.44-14.85,9.67-1.02.66-2.04,1.33-3.09,2.01-10.28,6.71-20.45,13.59-30.61,20.48-15.34,10.39-30.77,20.64-46.25,30.81-13.77,9.05-27.47,18.2-41.12,27.44-13.2,8.92-26.41,17.82-39.7,26.61-1.63,1.08-3.26,2.16-4.89,3.24-16.8,11.16-31.12,19.23-51.89,15.85-6.19-1.63-11.44-4.36-16.81-7.79-.69-.43-1.38-.87-2.09-1.32-8.04-5.12-15.92-10.48-23.81-15.84-15.89-10.8-31.87-21.47-47.94-32.01-15.47-10.15-30.84-20.43-46.16-30.8-12.92-8.75-25.9-17.39-38.94-25.96-7.97-5.24-15.93-10.49-23.89-15.74-.76-.5-1.51-1-2.3-1.51-4.05-2.67-8.09-5.35-12.12-8.05-1.69-1.13-3.38-2.25-5.08-3.36-8.98-6.05-16.89-12.4-21.51-22.38-.56-1.17-1.11-2.34-1.69-3.55-4.3-10.27-3.99-24.01-.19-34.39,5.83-12.84,15.85-22.39,28.88-27.75,5.4-1.54,10.07-2.25,15.73-2.26Z"/>
</svg>